<?xml version="1.0" encoding="UTF-8"?>
<svg id="_图层_2" data-name="图层 2" xmlns="http://www.w3.org/2000/svg" viewBox="0 0 630.67 47.71">
  <g id="Logo_Black_" data-name="Logo (Black)">
    <g>
      <path d="M77.65,47.16H23.28c-6.4,0-11.88-2.28-16.44-6.84C2.28,35.76,0,30.28,0,23.88S2.28,11.96,6.84,7.4C11.4,2.85,16.88.57,23.28.57h54.37v7.78H23.28c-4.28,0-7.93,1.51-10.97,4.53-3.04,3.04-4.56,6.71-4.56,11s1.52,7.93,4.56,10.97c3.04,3.04,6.7,4.56,10.97,4.56h54.37v7.75Z"/>
      <path d="M162.94.57v7.78h-69.9v11.62h69.9v7.78h-69.9v11.66h69.9v7.75h-77.65V.57h77.65Z"/>
      <path d="M252.11.57v46.59h-7.78V11.18l-32.98,29.53-33.01-29.53v35.98h-7.75V.57h7.52l33.24,29.73L244.59.57h7.52Z"/>
      <path d="M337.4.57v7.78h-69.9v11.62h69.9v7.78h-69.9v11.66h69.9v7.75h-77.65V.57h77.65Z"/>
      <path d="M422.69.57v46.59h-10.87l-59.03-39.33v39.33h-7.75V.57h10.87l59,39.33V.57h7.78Z"/>
      <path d="M507.98.57v7.78h-34.93v38.81h-7.78V8.35h-34.93V.57h77.65Z"/>
      <path d="M515.62,47.17V.53h7.78v39.31h12.73v7.33h-20.51Z"/>
      <path d="M561.95,47.17l-1.41-7.4h-8.91l-1.41,7.4h-7.92l9.9-46.64h7.78l9.9,46.64h-7.92ZM552.97,32.45h6.22l-3.11-16.72-3.11,16.72Z"/>
      <path d="M587.8,47.17h-11.74V.53h10.68c3.35,0,6.06.87,8.13,2.6,1.23,1.02,2.12,2.27,2.69,3.73.61,1.42.92,3.06.92,4.93v4.33c0,3.15-.94,5.55-2.83,7.2,2.59,1.73,3.89,4.53,3.89,8.4v4.26c0,1.91-.31,3.53-.92,4.86-.57,1.47-1.46,2.71-2.69,3.73-2.03,1.73-4.74,2.6-8.14,2.6ZM583.84,20.25h2.9c1.32,0,2.29-.27,2.9-.8.71-.67,1.06-1.78,1.06-3.33v-4.33c0-1.51-.33-2.58-.99-3.2-.57-.49-1.56-.73-2.97-.73h-2.9v12.39ZM583.84,39.84h3.96c1.41,0,2.41-.24,2.97-.73.66-.58.99-1.62.99-3.13v-4.26c0-1.6-.35-2.71-1.06-3.33-.61-.53-1.58-.8-2.9-.8h-3.96v12.26Z"/>
      <path d="M618.93,47.71c-3.4,0-6.13-.91-8.21-2.73-2.36-2.13-3.54-5.04-3.54-8.73v-6.06h7.78v6.06c0,1.6.35,2.71,1.06,3.33.61.53,1.58.8,2.9.8s2.33-.27,2.9-.8c.71-.58,1.06-1.69,1.06-3.33v-2.93c0-2.04-.87-3.82-2.62-5.33-.38-.31-1.37-.89-2.97-1.73-2.22-1.11-3.84-2.09-4.88-2.93-1.7-1.42-3-3.04-3.89-4.86-.9-1.82-1.34-3.77-1.34-5.86v-1.13c0-3.69,1.18-6.6,3.54-8.73,2.07-1.82,4.81-2.73,8.21-2.73s6.13.91,8.21,2.73c2.36,2.13,3.54,5.04,3.54,8.73v4.06h-7.78v-4.06c0-1.64-.35-2.75-1.06-3.33-.57-.53-1.53-.8-2.9-.8s-2.29.27-2.9.8c-.71.62-1.06,1.73-1.06,3.33v1.13c0,2.04.87,3.8,2.62,5.26.47.36,1.39.89,2.76,1.6,2.45,1.24,4.15,2.27,5.09,3.06,3.49,2.93,5.24,6.53,5.24,10.79v2.93c0,3.69-1.18,6.6-3.54,8.73-2.08,1.82-4.81,2.73-8.21,2.73Z"/>
    </g>
  </g>
</svg>